<svg width="74" height="66" viewBox="0 0 74 66" fill="none" xmlns="http://www.w3.org/2000/svg">
<path d="M38.7695 38.8965C38.7695 47.4805 37.0996 54.1309 33.7598 58.8477C30.4199 63.5352 25.7324 65.8789 19.6973 65.8789C13.6914 65.8789 8.98926 63.5059 5.59082 58.7598C2.19238 54.0137 0.493164 47.334 0.493164 38.7207V27.1191C0.493164 18.623 2.16309 12.002 5.50293 7.25586C8.87207 2.48047 13.5742 0.0927734 19.6094 0.0927734C25.6738 0.0927734 30.376 2.48047 33.7158 7.25586C37.085 12.002 38.7695 18.6816 38.7695 27.2949V38.8965ZM36.3965 27.1191C36.3965 19.3555 34.9316 13.3057 32.002 8.96973C29.1016 4.63379 24.9707 2.46582 19.6094 2.46582C14.2188 2.46582 10.0732 4.64844 7.17285 9.01367C4.30176 13.3496 2.86621 19.458 2.86621 27.3389V38.8086C2.86621 46.543 4.3457 52.5928 7.30469 56.958C10.2637 61.3232 14.3945 63.5059 19.6973 63.5059C25.0293 63.5059 29.1455 61.3232 32.0459 56.958C34.9463 52.5928 36.3965 46.4697 36.3965 38.5889V27.1191ZM73.2666 65H70.8936V4.00391L52.5244 10.9033V8.31055L72.7832 0.839844H73.2666V65Z" fill="#DC6041"/>
</svg>
