<svg width="90" height="66" viewBox="0 0 90 66" fill="none" xmlns="http://www.w3.org/2000/svg">
<path d="M38.7695 38.8965C38.7695 47.4805 37.0996 54.1309 33.7598 58.8477C30.4199 63.5352 25.7324 65.8789 19.6973 65.8789C13.6914 65.8789 8.98926 63.5059 5.59082 58.7598C2.19238 54.0137 0.493164 47.334 0.493164 38.7207V27.1191C0.493164 18.623 2.16309 12.002 5.50293 7.25586C8.87207 2.48047 13.5742 0.0927734 19.6094 0.0927734C25.6738 0.0927734 30.376 2.48047 33.7158 7.25586C37.085 12.002 38.7695 18.6816 38.7695 27.2949V38.8965ZM36.3965 27.1191C36.3965 19.3555 34.9316 13.3057 32.002 8.96973C29.1016 4.63379 24.9707 2.46582 19.6094 2.46582C14.2188 2.46582 10.0732 4.64844 7.17285 9.01367C4.30176 13.3496 2.86621 19.458 2.86621 27.3389V38.8086C2.86621 46.543 4.3457 52.5928 7.30469 56.958C10.2637 61.3232 14.3945 63.5059 19.6973 63.5059C25.0293 63.5059 29.1455 61.3232 32.0459 56.958C34.9463 52.5928 36.3965 46.4697 36.3965 38.5889V27.1191ZM89.3066 65H51.0303V62.627L72.8711 37.4463C76.4453 33.2568 79.0967 29.5361 80.8252 26.2842C82.583 23.0322 83.4619 20.0439 83.4619 17.3193C83.4619 12.6318 82.0996 8.99902 79.375 6.4209C76.6504 3.81348 72.8125 2.50977 67.8613 2.50977C64.873 2.50977 62.1484 3.22754 59.6875 4.66309C57.2266 6.09863 55.293 8.09082 53.8867 10.6396C52.5098 13.1592 51.8213 15.9717 51.8213 19.0771H49.4482C49.4482 15.6494 50.2393 12.4707 51.8213 9.54102C53.4033 6.61133 55.6006 4.31152 58.4131 2.6416C61.2256 0.97168 64.375 0.136719 67.8613 0.136719C73.5449 0.136719 77.9688 1.64551 81.1328 4.66309C84.2969 7.68066 85.8789 11.8994 85.8789 17.3193C85.8789 22.2998 83.0811 28.2617 77.4854 35.2051L73.4863 40.083L54.1504 62.627H89.3066V65Z" fill="#DC6041"/>
</svg>
