<svg width="89" height="66" viewBox="0 0 89 66" fill="none" xmlns="http://www.w3.org/2000/svg">
<path d="M38.7695 38.8965C38.7695 47.4805 37.0996 54.1309 33.7598 58.8477C30.4199 63.5352 25.7324 65.8789 19.6973 65.8789C13.6914 65.8789 8.98926 63.5059 5.59082 58.7598C2.19238 54.0137 0.493164 47.334 0.493164 38.7207V27.1191C0.493164 18.623 2.16309 12.002 5.50293 7.25586C8.87207 2.48047 13.5742 0.0927734 19.6094 0.0927734C25.6738 0.0927734 30.376 2.48047 33.7158 7.25586C37.085 12.002 38.7695 18.6816 38.7695 27.2949V38.8965ZM36.3965 27.1191C36.3965 19.3555 34.9316 13.3057 32.002 8.96973C29.1016 4.63379 24.9707 2.46582 19.6094 2.46582C14.2188 2.46582 10.0732 4.64844 7.17285 9.01367C4.30176 13.3496 2.86621 19.458 2.86621 27.3389V38.8086C2.86621 46.543 4.3457 52.5928 7.30469 56.958C10.2637 61.3232 14.3945 63.5059 19.6973 63.5059C25.0293 63.5059 29.1455 61.3232 32.0459 56.958C34.9463 52.5928 36.3965 46.4697 36.3965 38.5889V27.1191ZM62.6318 31.1621H67.9932C73.0029 31.0742 77.0459 29.7412 80.1221 27.1631C83.2275 24.585 84.7803 21.3037 84.7803 17.3193C84.7803 12.7783 83.3887 9.1748 80.6055 6.50879C77.8516 3.84277 74.0137 2.50977 69.0918 2.50977C64.2871 2.50977 60.332 3.91602 57.2266 6.72852C54.1211 9.54102 52.5684 13.2324 52.5684 17.8027H50.1953C50.1953 14.4043 51.0156 11.3574 52.6562 8.66211C54.2969 5.9668 56.5674 3.87207 59.4678 2.37793C62.3682 0.883789 65.5762 0.136719 69.0918 0.136719C74.6289 0.136719 79.0234 1.7041 82.2754 4.83887C85.5273 7.94434 87.1533 12.1631 87.1533 17.4951C87.1533 20.8936 86.0693 23.9258 83.9014 26.5918C81.7627 29.2578 78.8623 31.1475 75.2002 32.2607C79.3896 33.2275 82.6562 35.0439 85 37.71C87.373 40.376 88.5596 43.8184 88.5596 48.0371C88.5596 53.4863 86.8164 57.8223 83.3301 61.0449C79.8438 64.2676 75.2295 65.8789 69.4873 65.8789C65.6201 65.8789 62.0459 65.0439 58.7646 63.374C55.4834 61.7041 53.0078 59.4922 51.3379 56.7383C49.668 53.9844 48.833 50.8057 48.833 47.2021H51.2061C51.2061 51.8896 52.9346 55.7861 56.3916 58.8916C59.8486 61.9678 64.2139 63.5059 69.4873 63.5059C74.7314 63.5059 78.8184 62.1582 81.748 59.4629C84.707 56.7383 86.1865 52.9883 86.1865 48.2129C86.1865 43.4961 84.6045 39.8926 81.4404 37.4023C78.3057 34.9121 73.7061 33.6523 67.6416 33.623H62.6318V31.1621Z" fill="#DC6041"/>
</svg>
